:SAMPLES-PER-SECOND 30
:FULLY-SPECIFIED
:DEGREES
809
root  10.313 39.5971 9.72167 21.5506 79.0077 29.3804
RightUpLeg  -8.16278 -10.2783 -17.232
RightLeg  20.0412 -3.25722 -1.53182
RightFoot  -0.477616 -0.623768 6.51581
RightToes  0.000481921 0.542163 -0.142578
Spine  14.2197 -0.581504 1.90206
Spine1  10.3123 -0.287254 -0.808784
HEad  13.8317 3.78626 -3.15405
LeftShoulder1  6.38955 -13.5797 -31.3581
LeftArm  -8.58088 -19.081 -51.5753
LeftForeArm  -161.877 -52.2072 -169.024
LeftHand  -0.25398 0.0180481 5.50724
RightShoulder  4.93473 11.9201 25.9018
RightArm  2.48147 26.519 67.2666
RightForeArm  171.883 59.0698 163.573
RightHand  -1.03161 5.86899 -11.0162
LeftUpLeg  -2.51905 20.3358 0.130056
LeftLeg  20.1945 14.3435 5.70091
LeftFoot  -6.06826 0.180148 -3.11255
LeftToes  1.06245e-005 4.65869e-005 -8.65517e-006
810
root  10.2513 39.7576 9.79341 22.1783 78.4963 28.7531
RightUpLeg  -8.68251 -11.0899 -16.9453
RightLeg  17.9764 -2.55939 -1.13826
RightFoot  0.21831 -0.698267 6.90591
RightToes  0.000481921 0.542163 -0.142578
Spine  13.862 -0.245518 3.49222
Spine1  9.20014 0.649227 -2.28737
HEad  14.0156 2.39532 -2.80905
LeftShoulder1  6.26953 -13.6289 -30.5424
LeftArm  -8.94587 -20.2738 -51.5778
LeftForeArm  -161.736 -52.3378 -168.98
LeftHand  -0.25398 0.0180481 5.50724
RightShoulder  4.61709 11.4833 24.6667
RightArm  1.96739 30.0879 67.1606
RightForeArm  170.562 60.5791 162.474
RightHand  -0.959147 5.15345 -10.9091
LeftUpLeg  -2.59165 19.6115 0.334754
LeftLeg  17.9792 15.7002 4.07112
LeftFoot  -5.43236 0.222263 -3.67829
LeftToes  1.06245e-005 4.65869e-005 -8.65517e-006
811
root  10.1028 39.7675 9.88502 24.0214 78.7361 29.6536
RightUpLeg  -9.64584 -12.5813 -16.7363
RightLeg  17.7433 -1.75896 -0.839774
RightFoot  0.156875 -0.738268 7.33506
RightToes  0.000481921 0.542163 -0.142578
Spine  14.4285 -0.230234 4.67375
Spine1  7.87327 1.03289 -3.13473
HEad  13.0379 1.55906 -2.83839
LeftShoulder1  6.2023 -13.5875 -30.2342
LeftArm  -9.36787 -22.5311 -51.167
LeftForeArm  -161.411 -52.4178 -168.969
LeftHand  -0.25398 0.0180481 5.50724
RightShoulder  4.37851 11.2201 23.5454
RightArm  1.72242 33.7857 67.0686
RightForeArm  169.151 62.2798 161.123
RightHand  -0.952496 4.67631 -11.303
LeftUpLeg  -3.64113 20.5706 0.341207
LeftLeg  17.6265 14.4875 3.36283
LeftFoot  -5.58215 0.255291 -4.41436
LeftToes  1.06245e-005 4.65869e-005 -8.65517e-006
812
root  9.87029 39.635 9.99151 25.6917 79.6087 31.1457
RightUpLeg  -10.6696 -13.6436 -16.4203
RightLeg  19.335 -1.64839 -0.856568
RightFoot  -0.347027 -0.691431 7.14655
RightToes  0.000481921 0.542163 -0.142578
Spine  15.7478 -0.496312 5.63673
Spine1  7.43435 0.989495 -3.31193
HEad  10.9365 1.11662 -3.15325
LeftShoulder1  6.22017 -13.7352 -30.0244
LeftArm  -9.766 -25.3248 -50.7419
LeftForeArm  -162.133 -52.5317 -168.875
LeftHand  -0.25398 0.0180481 5.50724
RightShoulder  4.23832 11.3531 22.2646
RightArm  1.37973 37.4583 66.9402
RightForeArm  167.624 63.6438 159.888
RightHand  -1.12432 5.22813 -12.6143
LeftUpLeg  -5.33284 23.1653 0.17992
LeftLeg  19.2783 10.9133 3.94186
LeftFoot  -6.18081 0.247639 -4.66531
LeftToes  1.06245e-005 4.65869e-005 -8.65517e-006
813
root  9.62178 39.428 10.1246 26.225 80.7459 32.2645
RightUpLeg  -11.2571 -14.2295 -15.9614
RightLeg  21.7223 -1.9748 -1.08317
RightFoot  -0.988064 -0.570794 6.21576
RightToes  0.000481921 0.542163 -0.142578
Spine  17.2031 -0.795754 6.49751
Spine1  8.32703 0.879999 -3.12347
HEad  8.55766 0.577674 -3.13992
LeftShoulder1  6.20093 -13.9975 -29.3607
LeftArm  -9.41885 -28.0346 -51.4597
LeftForeArm  -163.389 -53.1221 -168.544
LeftHand  -0.25398 0.0180481 5.50724
RightShoulder  4.14612 11.5581 21.1954
RightArm  0.846393 40.2766 66.6787
RightForeArm  166.153 64.3856 159.097
RightHand  -1.31311 5.9362 -13.7979
LeftUpLeg  -6.67791 23.0118 0.537765
LeftLeg  21.9326 9.77268 4.70482
LeftFoot  -6.78817 0.211816 -4.29969
LeftToes  1.06245e-005 4.65869e-005 -8.65517e-006
